<?xml version="1.0" encoding="UTF-8" standalone="no"?>
<!DOCTYPE svg PUBLIC "-//W3C//DTD SVG 1.1//EN"
 "http://www.w3.org/Graphics/SVG/1.1/DTD/svg11.dtd">
<!-- Generated by graphviz version 2.40.1 (20161225.0304)
 -->
<!-- Title: %3 Pages: 1 -->
<svg width="189pt" height="332pt"
 viewBox="0.00 0.00 189.00 332.00" xmlns="http://www.w3.org/2000/svg" xmlns:xlink="http://www.w3.org/1999/xlink">
<g id="graph0" class="graph" transform="scale(1 1) rotate(0) translate(4 328)">
<title>%3</title>
<polygon fill="#ffffff" stroke="transparent" points="-4,4 -4,-328 185,-328 185,4 -4,4"/>
<!-- x -->
<g id="node1" class="node">
<title>x</title>
<ellipse fill="none" stroke="#000000" cx="82" cy="-234" rx="27" ry="18"/>
<text text-anchor="middle" x="82" y="-230.3" font-family="Times,serif" font-size="14.00" fill="#000000">x</text>
</g>
<!-- c -->
<g id="node3" class="node">
<title>c</title>
<ellipse fill="none" stroke="#000000" cx="82" cy="-162" rx="27" ry="18"/>
<text text-anchor="middle" x="82" y="-158.3" font-family="Times,serif" font-size="14.00" fill="#000000">c</text>
</g>
<!-- x&#45;&gt;c -->
<g id="edge5" class="edge">
<title>x&#45;&gt;c</title>
<path fill="none" stroke="#000000" d="M82,-215.8314C82,-208.131 82,-198.9743 82,-190.4166"/>
<polygon fill="#000000" stroke="#000000" points="85.5001,-190.4132 82,-180.4133 78.5001,-190.4133 85.5001,-190.4132"/>
</g>
<!-- d -->
<g id="node2" class="node">
<title>d</title>
<ellipse fill="none" stroke="#000000" cx="154" cy="-234" rx="27" ry="18"/>
<text text-anchor="middle" x="154" y="-230.3" font-family="Times,serif" font-size="14.00" fill="#000000">d</text>
</g>
<!-- e -->
<g id="node4" class="node">
<title>e</title>
<ellipse fill="none" stroke="#000000" cx="154" cy="-162" rx="27" ry="18"/>
<text text-anchor="middle" x="154" y="-158.3" font-family="Times,serif" font-size="14.00" fill="#000000">e</text>
</g>
<!-- d&#45;&gt;e -->
<g id="edge9" class="edge">
<title>d&#45;&gt;e</title>
<path fill="none" stroke="#000000" d="M154,-215.8314C154,-208.131 154,-198.9743 154,-190.4166"/>
<polygon fill="#000000" stroke="#000000" points="157.5001,-190.4132 154,-180.4133 150.5001,-190.4133 157.5001,-190.4132"/>
</g>
<!-- y -->
<g id="node9" class="node">
<title>y</title>
<ellipse fill="none" stroke="#000000" cx="90" cy="-90" rx="27" ry="18"/>
<text text-anchor="middle" x="90" y="-86.3" font-family="Times,serif" font-size="14.00" fill="#000000">y</text>
</g>
<!-- c&#45;&gt;y -->
<g id="edge6" class="edge">
<title>c&#45;&gt;y</title>
<path fill="none" stroke="#000000" d="M84.0187,-143.8314C84.8743,-136.131 85.8917,-126.9743 86.8426,-118.4166"/>
<polygon fill="#000000" stroke="#000000" points="90.3283,-118.7386 87.9541,-108.4133 83.3711,-117.9656 90.3283,-118.7386"/>
</g>
<!-- e&#45;&gt;y -->
<g id="edge10" class="edge">
<title>e&#45;&gt;y</title>
<path fill="none" stroke="#000000" d="M140.113,-146.3771C131.4747,-136.659 120.2107,-123.987 110.5503,-113.1191"/>
<polygon fill="#000000" stroke="#000000" points="113.1196,-110.7413 103.8599,-105.5924 107.8877,-115.3918 113.1196,-110.7413"/>
</g>
<!-- f -->
<g id="node5" class="node">
<title>f</title>
<ellipse fill="none" stroke="#000000" cx="99" cy="-18" rx="27" ry="18"/>
<text text-anchor="middle" x="99" y="-14.3" font-family="Times,serif" font-size="14.00" fill="#000000">f</text>
</g>
<!-- b -->
<g id="node6" class="node">
<title>b</title>
<ellipse fill="none" stroke="#000000" cx="140" cy="-306" rx="27" ry="18"/>
<text text-anchor="middle" x="140" y="-302.3" font-family="Times,serif" font-size="14.00" fill="#000000">b</text>
</g>
<!-- b&#45;&gt;x -->
<g id="edge3" class="edge">
<title>b&#45;&gt;x</title>
<path fill="none" stroke="#000000" d="M127.1279,-290.0209C119.5438,-280.6061 109.8018,-268.5126 101.3116,-257.973"/>
<polygon fill="#000000" stroke="#000000" points="103.8351,-255.5264 94.8361,-249.9345 98.3838,-259.9177 103.8351,-255.5264"/>
</g>
<!-- b&#45;&gt;d -->
<g id="edge4" class="edge">
<title>b&#45;&gt;d</title>
<path fill="none" stroke="#000000" d="M143.5328,-287.8314C145.0698,-279.9266 146.9053,-270.4872 148.6068,-261.7365"/>
<polygon fill="#000000" stroke="#000000" points="152.0437,-262.3976 150.5168,-251.9134 145.1724,-261.0615 152.0437,-262.3976"/>
</g>
<!-- h -->
<g id="node7" class="node">
<title>h</title>
<ellipse fill="none" stroke="#000000" cx="27" cy="-18" rx="27" ry="18"/>
<text text-anchor="middle" x="27" y="-14.3" font-family="Times,serif" font-size="14.00" fill="#000000">h</text>
</g>
<!-- a -->
<g id="node8" class="node">
<title>a</title>
<ellipse fill="none" stroke="#000000" cx="41" cy="-306" rx="27" ry="18"/>
<text text-anchor="middle" x="41" y="-302.3" font-family="Times,serif" font-size="14.00" fill="#000000">a</text>
</g>
<!-- a&#45;&gt;x -->
<g id="edge1" class="edge">
<title>a&#45;&gt;x</title>
<path fill="none" stroke="#000000" d="M50.7164,-288.937C55.6693,-280.2393 61.7961,-269.4799 67.3113,-259.7948"/>
<polygon fill="#000000" stroke="#000000" points="70.4463,-261.3623 72.3533,-250.9405 64.3634,-257.8984 70.4463,-261.3623"/>
</g>
<!-- a&#45;&gt;h -->
<g id="edge2" class="edge">
<title>a&#45;&gt;h</title>
<path fill="none" stroke="#000000" d="M40.1242,-287.9843C37.7573,-239.2939 31.2193,-104.7961 28.3639,-46.0573"/>
<polygon fill="#000000" stroke="#000000" points="31.8569,-45.8271 27.8754,-36.0089 24.8652,-46.1671 31.8569,-45.8271"/>
</g>
<!-- y&#45;&gt;f -->
<g id="edge7" class="edge">
<title>y&#45;&gt;f</title>
<path fill="none" stroke="#000000" d="M92.2711,-71.8314C93.2336,-64.131 94.3782,-54.9743 95.4479,-46.4166"/>
<polygon fill="#000000" stroke="#000000" points="98.9309,-46.7702 96.6983,-36.4133 91.9849,-45.9019 98.9309,-46.7702"/>
</g>
<!-- y&#45;&gt;h -->
<g id="edge8" class="edge">
<title>y&#45;&gt;h</title>
<path fill="none" stroke="#000000" d="M76.3299,-74.3771C67.8266,-64.659 56.7387,-51.987 47.2292,-41.1191"/>
<polygon fill="#000000" stroke="#000000" points="49.8625,-38.8135 40.6434,-33.5924 44.5944,-43.423 49.8625,-38.8135"/>
</g>
</g>
</svg>
