<?xml version="1.0" encoding="UTF-8" standalone="no"?>
<!DOCTYPE svg PUBLIC "-//W3C//DTD SVG 1.1//EN"
 "http://www.w3.org/Graphics/SVG/1.1/DTD/svg11.dtd">
<!-- Generated by graphviz version 2.40.1 (20161225.0304)
 -->
<!-- Title: %3 Pages: 1 -->
<svg width="206pt" height="188pt"
 viewBox="0.00 0.00 206.00 188.00" xmlns="http://www.w3.org/2000/svg" xmlns:xlink="http://www.w3.org/1999/xlink">
<g id="graph0" class="graph" transform="scale(1 1) rotate(0) translate(4 184)">
<title>%3</title>
<polygon fill="#ffffff" stroke="transparent" points="-4,4 -4,-184 202,-184 202,4 -4,4"/>
<!-- x -->
<g id="node1" class="node">
<title>x</title>
<ellipse fill="none" stroke="#000000" cx="27" cy="-90" rx="27" ry="18"/>
<text text-anchor="middle" x="27" y="-86.3" font-family="Times,serif" font-size="14.00" fill="#000000">x</text>
</g>
<!-- y -->
<g id="node5" class="node">
<title>y</title>
<ellipse fill="none" stroke="#000000" cx="99" cy="-18" rx="27" ry="18"/>
<text text-anchor="middle" x="99" y="-14.3" font-family="Times,serif" font-size="14.00" fill="#000000">y</text>
</g>
<!-- x&#45;&gt;y -->
<g id="edge1" class="edge">
<title>x&#45;&gt;y</title>
<path fill="none" stroke="#000000" d="M42.2693,-74.7307C52.197,-64.803 65.3153,-51.6847 76.4363,-40.5637"/>
<polygon fill="#000000" stroke="#000000" points="79.1564,-42.7933 83.7527,-33.2473 74.2067,-37.8436 79.1564,-42.7933"/>
</g>
<!-- z -->
<g id="node2" class="node">
<title>z</title>
<ellipse fill="none" stroke="#000000" cx="99" cy="-162" rx="27" ry="18"/>
<text text-anchor="middle" x="99" y="-158.3" font-family="Times,serif" font-size="14.00" fill="#000000">z</text>
</g>
<!-- z&#45;&gt;x -->
<g id="edge4" class="edge">
<title>z&#45;&gt;x</title>
<path fill="none" stroke="#000000" d="M83.7307,-146.7307C73.803,-136.803 60.6847,-123.6847 49.5637,-112.5637"/>
<polygon fill="#000000" stroke="#000000" points="51.7933,-109.8436 42.2473,-105.2473 46.8436,-114.7933 51.7933,-109.8436"/>
</g>
<!-- y_0 -->
<g id="node3" class="node">
<title>y_0</title>
<ellipse fill="none" stroke="#000000" cx="99" cy="-90" rx="27" ry="18"/>
<text text-anchor="middle" x="99" y="-86.3" font-family="Times,serif" font-size="14.00" fill="#000000">y_0</text>
</g>
<!-- z&#45;&gt;y_0 -->
<g id="edge5" class="edge">
<title>z&#45;&gt;y_0</title>
<path fill="none" stroke="#000000" d="M99,-143.8314C99,-136.131 99,-126.9743 99,-118.4166"/>
<polygon fill="#000000" stroke="#000000" points="102.5001,-118.4132 99,-108.4133 95.5001,-118.4133 102.5001,-118.4132"/>
</g>
<!-- y_1 -->
<g id="node4" class="node">
<title>y_1</title>
<ellipse fill="none" stroke="#000000" cx="171" cy="-90" rx="27" ry="18"/>
<text text-anchor="middle" x="171" y="-86.3" font-family="Times,serif" font-size="14.00" fill="#000000">y_1</text>
</g>
<!-- z&#45;&gt;y_1 -->
<g id="edge6" class="edge">
<title>z&#45;&gt;y_1</title>
<path fill="none" stroke="#000000" d="M114.2693,-146.7307C124.197,-136.803 137.3153,-123.6847 148.4363,-112.5637"/>
<polygon fill="#000000" stroke="#000000" points="151.1564,-114.7933 155.7527,-105.2473 146.2067,-109.8436 151.1564,-114.7933"/>
</g>
<!-- y_0&#45;&gt;y -->
<g id="edge2" class="edge">
<title>y_0&#45;&gt;y</title>
<path fill="none" stroke="#000000" d="M99,-71.8314C99,-64.131 99,-54.9743 99,-46.4166"/>
<polygon fill="#000000" stroke="#000000" points="102.5001,-46.4132 99,-36.4133 95.5001,-46.4133 102.5001,-46.4132"/>
</g>
<!-- y_1&#45;&gt;y -->
<g id="edge3" class="edge">
<title>y_1&#45;&gt;y</title>
<path fill="none" stroke="#000000" d="M155.7307,-74.7307C145.803,-64.803 132.6847,-51.6847 121.5637,-40.5637"/>
<polygon fill="#000000" stroke="#000000" points="123.7933,-37.8436 114.2473,-33.2473 118.8436,-42.7933 123.7933,-37.8436"/>
</g>
</g>
</svg>
