<?xml version="1.0" encoding="UTF-8" standalone="no"?>
<!DOCTYPE svg PUBLIC "-//W3C//DTD SVG 1.1//EN"
 "http://www.w3.org/Graphics/SVG/1.1/DTD/svg11.dtd">
<!-- Generated by graphviz version 2.40.1 (20161225.0304)
 -->
<!-- Title: %3 Pages: 1 -->
<svg width="168pt" height="260pt"
 viewBox="0.00 0.00 167.55 260.00" xmlns="http://www.w3.org/2000/svg" xmlns:xlink="http://www.w3.org/1999/xlink">
<g id="graph0" class="graph" transform="scale(1 1) rotate(0) translate(4 256)">
<title>%3</title>
<polygon fill="#ffffff" stroke="transparent" points="-4,4 -4,-256 163.5461,-256 163.5461,4 -4,4"/>
<!-- sprinkler -->
<g id="node1" class="node">
<title>sprinkler</title>
<ellipse fill="none" stroke="#000000" cx="43.5461" cy="-162" rx="43.5923" ry="18"/>
<text text-anchor="middle" x="43.5461" y="-158.3" font-family="Times,serif" font-size="14.00" fill="#000000">sprinkler</text>
</g>
<!-- wet -->
<g id="node3" class="node">
<title>wet</title>
<ellipse fill="none" stroke="#000000" cx="87.5461" cy="-90" rx="27" ry="18"/>
<text text-anchor="middle" x="87.5461" y="-86.3" font-family="Times,serif" font-size="14.00" fill="#000000">wet</text>
</g>
<!-- sprinkler&#45;&gt;wet -->
<g id="edge4" class="edge">
<title>sprinkler&#45;&gt;wet</title>
<path fill="none" stroke="#000000" d="M54.4225,-144.2022C59.6681,-135.6186 66.0587,-125.1613 71.8221,-115.7303"/>
<polygon fill="#000000" stroke="#000000" points="74.8698,-117.4551 77.0978,-107.0972 68.8968,-113.805 74.8698,-117.4551"/>
</g>
<!-- season -->
<g id="node2" class="node">
<title>season</title>
<ellipse fill="none" stroke="#000000" cx="87.5461" cy="-234" rx="35.194" ry="18"/>
<text text-anchor="middle" x="87.5461" y="-230.3" font-family="Times,serif" font-size="14.00" fill="#000000">season</text>
</g>
<!-- season&#45;&gt;sprinkler -->
<g id="edge2" class="edge">
<title>season&#45;&gt;sprinkler</title>
<path fill="none" stroke="#000000" d="M76.895,-216.5708C71.691,-208.0553 65.3205,-197.6308 59.5468,-188.183"/>
<polygon fill="#000000" stroke="#000000" points="62.4528,-186.226 54.2517,-179.5182 56.4798,-189.8762 62.4528,-186.226"/>
</g>
<!-- rain -->
<g id="node4" class="node">
<title>rain</title>
<ellipse fill="none" stroke="#000000" cx="132.5461" cy="-162" rx="27" ry="18"/>
<text text-anchor="middle" x="132.5461" y="-158.3" font-family="Times,serif" font-size="14.00" fill="#000000">rain</text>
</g>
<!-- season&#45;&gt;rain -->
<g id="edge1" class="edge">
<title>season&#45;&gt;rain</title>
<path fill="none" stroke="#000000" d="M98.4394,-216.5708C103.9359,-207.7763 110.7051,-196.9457 116.7601,-187.2577"/>
<polygon fill="#000000" stroke="#000000" points="119.731,-189.1079 122.0631,-178.7729 113.795,-185.3979 119.731,-189.1079"/>
</g>
<!-- slippery -->
<g id="node5" class="node">
<title>slippery</title>
<ellipse fill="none" stroke="#000000" cx="87.5461" cy="-18" rx="40.0939" ry="18"/>
<text text-anchor="middle" x="87.5461" y="-14.3" font-family="Times,serif" font-size="14.00" fill="#000000">slippery</text>
</g>
<!-- wet&#45;&gt;slippery -->
<g id="edge5" class="edge">
<title>wet&#45;&gt;slippery</title>
<path fill="none" stroke="#000000" d="M87.5461,-71.8314C87.5461,-64.131 87.5461,-54.9743 87.5461,-46.4166"/>
<polygon fill="#000000" stroke="#000000" points="91.0462,-46.4132 87.5461,-36.4133 84.0462,-46.4133 91.0462,-46.4132"/>
</g>
<!-- rain&#45;&gt;wet -->
<g id="edge3" class="edge">
<title>rain&#45;&gt;wet</title>
<path fill="none" stroke="#000000" d="M122.1091,-145.3008C116.6227,-136.5224 109.7776,-125.5703 103.6298,-115.7339"/>
<polygon fill="#000000" stroke="#000000" points="106.5071,-113.7336 98.239,-107.1086 100.5711,-117.4436 106.5071,-113.7336"/>
</g>
</g>
</svg>
