<?xml version="1.0" encoding="UTF-8" standalone="no"?>
<!DOCTYPE svg PUBLIC "-//W3C//DTD SVG 1.1//EN"
 "http://www.w3.org/Graphics/SVG/1.1/DTD/svg11.dtd">
<!-- Generated by graphviz version 2.40.1 (20161225.0304)
 -->
<!-- Title: %3 Pages: 1 -->
<svg width="142pt" height="124pt"
 viewBox="0.00 0.00 142.00 124.00" xmlns="http://www.w3.org/2000/svg" xmlns:xlink="http://www.w3.org/1999/xlink">
<g id="graph0" class="graph" transform="scale(1 1) rotate(0) translate(4 120)">
<title>%3</title>
<polygon fill="#ffffff" stroke="transparent" points="-4,4 -4,-120 138,-120 138,4 -4,4"/>
<!-- x -->
<g id="node1" class="node">
<title>x</title>
<ellipse fill="none" stroke="#000000" cx="31" cy="-94" rx="27" ry="18"/>
<ellipse fill="none" stroke="#000000" cx="31" cy="-94" rx="31" ry="22"/>
<text text-anchor="middle" x="31" y="-90.3" font-family="Times,serif" font-size="14.00" fill="#000000">x</text>
</g>
<!-- y -->
<g id="node3" class="node">
<title>y</title>
<ellipse fill="none" stroke="#000000" cx="69" cy="-18" rx="27" ry="18"/>
<text text-anchor="middle" x="69" y="-14.3" font-family="Times,serif" font-size="14.00" fill="#000000">y</text>
</g>
<!-- x&#45;&gt;y -->
<g id="edge1" class="edge">
<title>x&#45;&gt;y</title>
<path fill="none" stroke="#000000" d="M41.3837,-73.2327C45.8665,-64.2669 51.1613,-53.6775 55.9093,-44.1815"/>
<polygon fill="#000000" stroke="#000000" points="59.083,-45.6602 60.4247,-35.1506 52.822,-42.5297 59.083,-45.6602"/>
</g>
<!-- z -->
<g id="node2" class="node">
<title>z</title>
<ellipse fill="none" stroke="#000000" cx="107" cy="-94" rx="27" ry="18"/>
<text text-anchor="middle" x="107" y="-90.3" font-family="Times,serif" font-size="14.00" fill="#000000">z</text>
</g>
<!-- z&#45;&gt;y -->
<g id="edge2" class="edge">
<title>z&#45;&gt;y</title>
<path fill="none" stroke="#000000" d="M98.3772,-76.7544C93.5673,-67.1345 87.4774,-54.9548 82.0911,-44.1822"/>
<polygon fill="#000000" stroke="#000000" points="85.1914,-42.5563 77.5887,-35.1773 78.9304,-45.6869 85.1914,-42.5563"/>
</g>
</g>
</svg>
