<?xml version="1.0" encoding="UTF-8" standalone="no"?>
<!DOCTYPE svg PUBLIC "-//W3C//DTD SVG 1.1//EN"
 "http://www.w3.org/Graphics/SVG/1.1/DTD/svg11.dtd">
<!-- Generated by graphviz version 2.40.1 (20161225.0304)
 -->
<!-- Title: %3 Pages: 1 -->
<svg width="176pt" height="268pt"
 viewBox="0.00 0.00 175.55 268.00" xmlns="http://www.w3.org/2000/svg" xmlns:xlink="http://www.w3.org/1999/xlink">
<g id="graph0" class="graph" transform="scale(1 1) rotate(0) translate(4 264)">
<title>%3</title>
<polygon fill="#ffffff" stroke="transparent" points="-4,4 -4,-264 171.5461,-264 171.5461,4 -4,4"/>
<!-- sprinkler -->
<g id="node1" class="node">
<title>sprinkler</title>
<ellipse fill="none" stroke="#000000" cx="124" cy="-166" rx="43.5923" ry="18"/>
<text text-anchor="middle" x="124" y="-162.3" font-family="Times,serif" font-size="14.00" fill="#000000">sprinkler</text>
</g>
<!-- wet -->
<g id="node3" class="node">
<title>wet</title>
<ellipse fill="none" stroke="#000000" cx="77" cy="-90" rx="27" ry="18"/>
<text text-anchor="middle" x="77" y="-86.3" font-family="Times,serif" font-size="14.00" fill="#000000">wet</text>
</g>
<!-- sprinkler&#45;&gt;wet -->
<g id="edge1" class="edge">
<title>sprinkler&#45;&gt;wet</title>
<path fill="none" stroke="#000000" d="M113.0991,-148.373C107.04,-138.5753 99.3944,-126.2122 92.7009,-115.3886"/>
<polygon fill="#000000" stroke="#000000" points="95.5945,-113.4132 87.358,-106.7491 89.6409,-117.095 95.5945,-113.4132"/>
</g>
<!-- season -->
<g id="node2" class="node">
<title>season</title>
<ellipse fill="none" stroke="#000000" cx="124" cy="-242" rx="35.194" ry="18"/>
<text text-anchor="middle" x="124" y="-238.3" font-family="Times,serif" font-size="14.00" fill="#000000">season</text>
</g>
<!-- season&#45;&gt;sprinkler -->
<g id="edge2" class="edge">
<title>season&#45;&gt;sprinkler</title>
<path fill="none" stroke="#000000" d="M124,-223.9891C124,-215.1566 124,-204.3099 124,-194.3965"/>
<polygon fill="#000000" stroke="#000000" points="127.5001,-194.145 124,-184.145 120.5001,-194.1451 127.5001,-194.145"/>
</g>
<!-- slippery -->
<g id="node5" class="node">
<title>slippery</title>
<ellipse fill="none" stroke="#000000" cx="77" cy="-18" rx="40.0939" ry="18"/>
<text text-anchor="middle" x="77" y="-14.3" font-family="Times,serif" font-size="14.00" fill="#000000">slippery</text>
</g>
<!-- wet&#45;&gt;slippery -->
<g id="edge3" class="edge">
<title>wet&#45;&gt;slippery</title>
<path fill="none" stroke="#000000" d="M77,-71.8314C77,-64.131 77,-54.9743 77,-46.4166"/>
<polygon fill="#000000" stroke="#000000" points="80.5001,-46.4132 77,-36.4133 73.5001,-46.4133 80.5001,-46.4132"/>
</g>
<!-- rain -->
<g id="node4" class="node">
<title>rain</title>
<ellipse fill="none" stroke="#000000" cx="31" cy="-166" rx="27" ry="18"/>
<ellipse fill="none" stroke="#000000" cx="31" cy="-166" rx="31" ry="22"/>
<text text-anchor="middle" x="31" y="-162.3" font-family="Times,serif" font-size="14.00" fill="#000000">rain</text>
</g>
<!-- rain&#45;&gt;wet -->
<g id="edge4" class="edge">
<title>rain&#45;&gt;wet</title>
<path fill="none" stroke="#000000" d="M43.3272,-145.6334C48.9508,-136.3422 55.6682,-125.2439 61.6186,-115.4127"/>
<polygon fill="#000000" stroke="#000000" points="64.6305,-117.1959 66.8143,-106.8286 58.642,-113.5712 64.6305,-117.1959"/>
</g>
</g>
</svg>
